<?xml version="1.0" encoding="UTF-8" standalone="no"?>
<!-- Created with Inkscape (http://www.inkscape.org/) -->

<svg
   width="80.168762mm"
   height="81.227089mm"
   viewBox="0 0 80.168762 81.227089"
   version="1.1"
   id="svg5"
   xml:space="preserve"
   xmlns:xlink="http://www.w3.org/1999/xlink"
   xmlns="http://www.w3.org/2000/svg"
   xmlns:svg="http://www.w3.org/2000/svg"><defs
     id="defs2"><linearGradient
       id="linearGradient89631"><stop
         style="stop-color:#000000;stop-opacity:0.5;"
         offset="0"
         id="stop89625" /><stop
         style="stop-color:#ffffff;stop-opacity:0;"
         offset="0.35277313"
         id="stop89629" /></linearGradient><linearGradient
       id="linearGradient87354"><stop
         style="stop-color:#ffffff;stop-opacity:1;"
         offset="0"
         id="stop87350" /><stop
         style="stop-color:#ffffff;stop-opacity:0;"
         offset="1"
         id="stop87352" /></linearGradient><linearGradient
       id="linearGradient82301"><stop
         style="stop-color:#c3c1ad;stop-opacity:1;"
         offset="0"
         id="stop82297" /><stop
         style="stop-color:#e6e4d7;stop-opacity:1;"
         offset="1"
         id="stop82299" /></linearGradient><linearGradient
       id="linearGradient80049"><stop
         style="stop-color:#504c39;stop-opacity:1;"
         offset="0"
         id="stop80045" /><stop
         style="stop-color:#ffffff;stop-opacity:1;"
         offset="1"
         id="stop80047" /></linearGradient><linearGradient
       id="linearGradient62500"><stop
         style="stop-color:#9f9a7f;stop-opacity:1;"
         offset="0"
         id="stop62496" /><stop
         style="stop-color:#cfccbd;stop-opacity:1;"
         offset="0.7684992"
         id="stop64748" /><stop
         style="stop-color:#e6e5e1;stop-opacity:1;"
         offset="1"
         id="stop62498" /></linearGradient><filter
       style="color-interpolation-filters:sRGB"
       id="filter92837"
       x="-0.0049999999"
       y="-0.0049342103"
       width="1.01"
       height="1.0098684"><feColorMatrix
         values="0.21 0.72 0 -0.1 0 0.21 0.72 0 -0.1 0 0.21 0.72 0 -0.1 0 0 0 0 1 0 "
         id="feColorMatrix92835" /></filter><rect
       x="246.85039"
       y="456.84091"
       width="300"
       height="303.99997"
       id="rect725" /><linearGradient
       xlink:href="#linearGradient62500"
       id="linearGradient727"
       gradientUnits="userSpaceOnUse"
       x1="114.93035"
       y1="201.30582"
       x2="114.93035"
       y2="120.47562" /><linearGradient
       xlink:href="#linearGradient80049"
       id="linearGradient729"
       gradientUnits="userSpaceOnUse"
       x1="92.745468"
       y1="201.30582"
       x2="92.745468"
       y2="120.47562" /><linearGradient
       xlink:href="#linearGradient89631"
       id="linearGradient731"
       gradientUnits="userSpaceOnUse"
       x1="130.69429"
       y1="201.30582"
       x2="130.69429"
       y2="120.47562" /><linearGradient
       xlink:href="#linearGradient82301"
       id="linearGradient733"
       gradientUnits="userSpaceOnUse"
       x1="105"
       y1="122.30685"
       x2="105"
       y2="184.67039" /><linearGradient
       xlink:href="#linearGradient87354"
       id="linearGradient735"
       gradientUnits="userSpaceOnUse"
       x1="113.48524"
       y1="121.90997"
       x2="113.48524"
       y2="184.67039" /><linearGradient
       xlink:href="#linearGradient80049"
       id="linearGradient737"
       gradientUnits="userSpaceOnUse"
       x1="92.745468"
       y1="201.30582"
       x2="92.745468"
       y2="120.47562" /></defs><g
     id="layer1"
     transform="translate(-182.66639,-17.218175)"><g
       id="g721"
       transform="translate(117.75076,-103.25744)"
       style="filter:url(#filter92837)"><rect
         style="fill:url(#linearGradient727);fill-opacity:1;fill-rule:evenodd;stroke:url(#linearGradient729);stroke-width:0.79375;stroke-linejoin:bevel;stroke-miterlimit:0;stroke-dasharray:none;stroke-opacity:1;stop-color:#000000"
         id="rect709"
         width="79.375"
         height="80.433334"
         x="65.3125"
         y="120.87249"
         ry="8.100523"
         rx="8.100523" /><rect
         style="display:inline;fill:url(#linearGradient731);fill-opacity:1;fill-rule:evenodd;stroke:none;stroke-width:0.79375;stroke-linejoin:bevel;stroke-miterlimit:0;stroke-dasharray:none;stroke-opacity:1;stop-color:#000000"
         id="rect711"
         width="79.375"
         height="80.433334"
         x="65.3125"
         y="120.87249"
         ry="8.100523"
         rx="8.100523" /><rect
         style="display:inline;opacity:1;fill:url(#linearGradient733);fill-opacity:1;fill-rule:evenodd;stroke:url(#linearGradient735);stroke-width:0.79375;stroke-linejoin:bevel;stroke-miterlimit:0;stroke-dasharray:none;stop-color:#000000"
         id="rect713"
         width="57.753506"
         height="62.363552"
         x="76.123245"
         y="122.30685"
         ry="7.7889228"
         rx="7.7889228" /><rect
         style="fill:none;fill-opacity:1;fill-rule:evenodd;stroke:url(#linearGradient737);stroke-width:0.79375;stroke-linejoin:bevel;stroke-miterlimit:0;stroke-dasharray:none;stroke-opacity:1;stop-color:#000000"
         id="rect715"
         width="79.375"
         height="80.433334"
         x="65.3125"
         y="120.87249"
         ry="8.100523"
         rx="8.100523" /><g
         aria-label="H"
         transform="matrix(0.26458333,0,0,0.26458333,-1.6226358,-7.3538717)"
         id="text719"
         style="font-size:266.667px;font-family:'Standard Symbols PS';-inkscape-font-specification:'Standard Symbols PS, Normal';text-align:center;white-space:pre;shape-inside:url(#rect725);display:inline;opacity:1;fill-rule:evenodd;stroke-width:3;stroke-linejoin:bevel;stroke-miterlimit:0;stop-color:#000000"><path
           d="m 362.44981,600.57531 h 81.06676 v -44.53339 c 0,-13.86669 -0.8,-17.86669 -3.73334,-22.6667 -3.73333,-5.06667 -10.93334,-8.26667 -19.73335,-8.26667 h -0.80001 v -6.93334 h 75.73343 v 6.93334 h -0.8 c -8.80001,0 -16.00002,3.2 -19.46669,8.26667 -3.2,4.80001 -4.00001,8.80001 -4.00001,22.6667 v 103.73346 c 0,13.86668 0.80001,18.13335 4.00001,22.66669 3.46667,5.06668 10.66668,8.26668 19.46669,8.26668 h 0.8 v 6.93334 h -75.73343 v -6.93334 h 0.80001 c 8.80001,0 16.00002,-3.2 19.73335,-8.26668 2.93334,-4.53334 3.73334,-8.80001 3.73334,-22.66669 v -48.00006 h -81.06676 v 48.00006 c 0,13.86668 0.8,18.13335 3.73333,22.66669 3.73334,5.06668 10.93335,8.26668 19.73336,8.26668 h 0.8 v 6.93334 h -75.73342 v -6.93334 h 0.8 c 8.53334,0 16.00002,-3.2 19.46669,-8.26668 3.2,-4.53334 4,-8.80001 4,-22.66669 V 556.04192 c 0,-13.86669 -0.8,-17.86669 -4,-22.6667 -3.46667,-5.06667 -10.93335,-8.26667 -19.46669,-8.26667 h -0.8 v -6.93334 h 75.73342 v 6.93334 h -0.8 c -8.80001,0 -16.00002,3.2 -19.73336,8.26667 -2.93333,4.80001 -3.73333,8.80001 -3.73333,22.6667 z"
           id="path751" /></g></g></g></svg>
